<svg xmlns="http://www.w3.org/2000/svg" data-name="Layer 1" width="676.40706" height="221.08756" style=""><rect id="backgroundrect" width="100%" height="100%" x="0" y="0" fill="none" stroke="none"/>
  <title>wicked-music-album-001</title>
  
<g class="currentLayer" style=""><title>Layer 1</title><g id="svg_1" class="selected" fill="#ffffff" fill-opacity="1">
    <path d="M223.0296784362793,4.317323374023431 a23.611,23.611 0 0 0 2.6782000000000004,-1.6737200000000003 c0.46372,-0.402 0.6024400000000001,-1.179 0.88736,-1.78691 a5.4904,5.4904 0 0 0 -1.60024,-0.6107000000000001 c-1.20136,-0.05738000000000001 -2.41136,0.09900000000000003 -3.61743,0.09667000000000003 q-27.01641,-0.04716000000000001 -54.03281,-0.08100000000000002 c-0.6539300000000001,0 -1.7146000000000001,0.3411100000000001 -1.8784800000000001,0.78518 c-0.35958000000000007,0.97186 0.32225000000000004,1.6725500000000002 1.32633,2.0341 a21.66579,21.66579 0 0 1 3.32388,1.3900000000000001 c2.49506,1.40571 4.43956,3.12935 4.10395,6.46894 c-0.41892000000000007,4.16526 -0.57808,8.35645 -0.8760000000000001,12.53468 c-0.12339000000000001,1.72835 -0.30928000000000005,3.4523800000000002 -0.47905000000000003,5.17719 q-0.5576400000000001,5.6696100000000005 -1.1298300000000001,11.33765 c-0.3309000000000001,3.25313 -0.6445000000000001,6.509 -1.02609,9.75627 c-0.42639000000000005,3.6245000000000003 -0.90819,7.24233 -1.3900000000000001,10.859770000000001 c-0.43779,3.28615 -0.9038700000000001,6.56836 -1.36484,9.85137 c-0.3474000000000001,2.47266 -0.70855,4.94337 -1.0591,7.41564 c-0.48533000000000004,3.41976 -0.9773499999999999,6.83835 -1.4454,10.26008 c-0.3371800000000001,2.46756 -0.6162000000000001,4.943 -0.9660000000000001,7.40857 c-0.33011000000000007,2.32765 -0.6767200000000002,4.65452 -1.09407,6.96764 c-0.37373,2.07418 -0.90505,4.12006 -1.27445,6.195 c-0.6300000000000001,3.53962 -1.1707100000000001,7.095 -1.78377,10.63812 c-0.24522000000000002,1.4179 -0.562,2.82439 -0.88146,4.22814 c-0.4448600000000001,1.95117 -0.8889400000000002,3.90353 -1.39707,5.839 c-0.44879,1.7094900000000002 -0.92312,3.419 -1.52832,5.0766 a1.6335600000000001,1.6335600000000001 0 0 1 -1.30078,0.81348 a1.6568900000000002,1.6568900000000002 0 0 1 -1.24773,-0.92313 c-0.59656,-2.36892 -1.03906,-4.77635 -1.557,-7.16531 c-0.23344000000000004,-1.07521 -0.52975,-2.13666 -0.7808700000000001,-3.2079400000000002 q-0.7173900000000001,-3.0594 -1.41435,-6.1239 c-0.3493700000000001,-1.5354 -0.7010900000000001,-3.0704 -1.01941,-4.61169 c-0.34779000000000004,-1.68355 -0.6170000000000001,-3.38361 -0.997,-5.0593 c-0.41300000000000003,-1.81913 -0.9427800000000001,-3.61194 -1.36877,-5.42871 c-0.32775000000000004,-1.39628 -0.58791,-2.80906 -0.8523900000000001,-4.21988 c-0.36115,-1.9240599999999999 -0.6834000000000001,-3.856 -1.04888,-5.77925 c-0.44525000000000003,-2.34534 -0.93138,-4.68282 -1.37466,-7.02855 c-0.36469,-1.93192 -0.6920000000000002,-3.87092 -1.03709,-5.80676 c-0.45351,-2.5438 -0.9541700000000001,-5.08013 -1.34795,-7.633 c-0.37215000000000004,-2.4129300000000002 -0.6126600000000001,-4.8463 -0.94552,-7.26592 c-0.48416000000000003,-3.52233 -1.10547,-7.02973 -1.47212,-10.56385 c-0.40714,-3.92278 -0.6071700000000001,-7.86718 -0.8728300000000001,-11.80372 c-0.3953400000000001,-5.85982 -0.90229,-11.71609 -1.11175,-17.583 c-0.18274000000000004,-5.11156 -0.0007900000000000002,-10.23531 -0.013760000000000003,-15.35356 c-0.009820000000000002,-3.98645 2.48446,-5.93527 5.75607,-6.69295 a1.819,1.819 0 0 0 1.6697900000000003,-1.9661 c-0.04600000000000001,-1.2273 -1.1373,-1.10076 -1.99636,-1.0563500000000001 c-1.78023,0.09200000000000003 -3.55771,0.33364000000000005 -5.33675,0.33679000000000003 q-22.67195,0.04185000000000001 -45.3435,0.009430000000000003 c-1.6890500000000002,-0.0011800000000000003 -3.37929,-0.14069 -5.06716,-0.11082000000000002 c-0.50695,0.008640000000000002 -1.37506,0.30100000000000005 -1.43322,0.59223 a2.90855,2.90855 0 0 0 0.40949,1.84192 a3.49721,3.49721 0 0 0 1.254,0.94749 c1.14477,0.71091 2.3374800000000002,1.34912 3.45277,2.10287 a5.67528,5.67528 0 0 1 2.7678000000000003,5.20981 c-0.31556000000000006,7.60507 -0.56118,15.21327 -0.8806800000000001,22.81794 c-0.06838000000000001,1.6297200000000003 -0.35722000000000004,3.24921 -0.50381,4.877 c-0.37100000000000005,4.11731 -0.7070000000000001,8.23777 -1.07914,12.355080000000001 c-0.3470000000000001,3.834 -0.6696400000000002,7.67148 -1.10271,11.496410000000001 c-0.36234000000000005,3.19773 -0.9168400000000001,6.373 -1.29843,9.56881 c-0.35290000000000005,2.9576200000000004 -0.54429,5.93409 -0.8920800000000001,8.8921 c-0.2519,2.14216 -0.6162000000000001,4.27293 -0.97971,6.4005600000000005 c-0.42010000000000003,2.45852 -0.9015099999999999,4.90682 -1.34205,7.36219 c-0.28727,1.60024 -0.54428,3.2063800000000002 -0.8237000000000001,4.80819 c-0.61816,3.54473 -1.2269,7.091 -1.8714,10.63105 c-0.24050000000000002,1.3216100000000002 -0.5446700000000001,2.633 -0.8661400000000001,3.93733 c-0.3984800000000001,1.6163500000000002 -0.85946,3.217 -1.26777,4.83058 c-0.60638,2.39878 -1.08267,4.83648 -1.81206,7.19675 c-0.8586700000000002,2.78037 -1.87533,5.51634 -2.94778,8.22244 c-0.23500000000000001,0.5930000000000001 -0.99308,1.3617 -1.51064,1.3617 a2.3767300000000002,2.3767300000000002 0 0 1 -1.8250000000000002,-1.1667800000000002 c-0.89836,-2.21015 -1.612,-4.50126 -2.2966100000000003,-6.79158 a38.0789,38.0789 0 0 1 -0.88736,-4.0564 c-0.3438600000000001,-1.8800000000000001 -0.6122700000000001,-3.77345 -0.9427700000000001,-5.65585 c-0.4778700000000001,-2.72418 -1.00015,-5.4405 -1.47016,-8.16625 c-0.38316000000000006,-2.22233 -0.71052,-4.45449 -1.07482,-6.68037 c-0.4413200000000001,-2.69627 -0.95142,-5.38233 -1.32908,-8.08725 c-0.4043800000000001,-2.8978800000000002 -0.6441000000000001,-5.8189400000000004 -1.03984,-8.718 c-0.40281000000000006,-2.95132 -0.96281,-5.881 -1.355,-8.83354 c-0.55726,-4.19276 -1.03552,-8.39653 -1.526,-12.598 q-0.49280000000000007,-4.2242 -0.92312,-8.45548 c-0.36351000000000006,-3.5380000000000003 -0.6688600000000001,-7.08278 -1.05949,-10.61769 c-0.41700000000000004,-3.77188 -0.94749,-7.53158 -1.3479400000000001,-11.305 c-0.3855200000000001,-3.63315 -0.6095200000000001,-7.284 -1.01469,-10.91479 c-0.37216000000000005,-3.33684 -0.9883599999999999,-6.64814 -1.31651,-9.98813 c-0.2923800000000001,-2.97765 1.39825,-4.9921 3.71922,-6.56954 q2.50647,-1.7036000000000002 5.02551,-3.38911 a2.12963,2.12963 0 0 0 0.8320000000000001,-2.78863 c-0.19453000000000004,-0.42560000000000003 -1.27249,-0.6150000000000001 -1.95236,-0.6221000000000001 c-2.75129,-0.030260000000000006 -5.50376,0.09432000000000003 -8.25584,0.08646000000000002 q-26.07442,-0.07780000000000001 -52.14923,-0.15169000000000002 c-0.51481,-0.00040000000000000013 -1.3856700000000002,0.47237000000000007 -1.471,0.8610000000000001 a1.51158,1.51158 0 0 0 1.17542,1.9456700000000002 a24.07808,24.07808 0 0 1 5.36976,2.41411 c7.07925,4.5197400000000005 10.37758,11.50113 12.14995,19.36792 c0.7490000000000001,3.32348 1.27524,6.6972700000000005 1.9016600000000001,10.04826 c0.28216,1.5090599999999998 0.54507,3.02206 0.8460900000000001,4.52759 c0.42168000000000005,2.11033 0.91448,4.20691 1.2968600000000001,6.32393 c0.37451000000000007,2.075 0.6189500000000001,4.17272 0.97578,6.25122 c0.46137000000000006,2.68881 0.97972,5.3674 1.46859,8.0515 c0.35290000000000005,1.93545 0.6853700000000001,3.87445 1.04888,5.80754 c0.44329,2.35831 0.9243,4.70915 1.3605200000000002,7.06825 c0.29552000000000006,1.5986600000000002 0.551,3.2048 0.80915,4.8101400000000005 c0.41146000000000005,2.55913 0.8056300000000001,5.12179 1.21551,7.68131 c0.3950000000000001,2.464 0.806,4.9249 1.19939,7.38892 c0.37100000000000005,2.3237200000000002 0.7022700000000001,4.65374 1.09722,6.97314 c0.40242000000000006,2.3626300000000002 0.91212,4.70718 1.27995,7.07414 c0.3749100000000001,2.41332 0.6060000000000001,4.84827 0.9530000000000001,7.26631 c0.279,1.94371 0.6327000000000002,3.8772 0.9608500000000001,5.81383 c0.4413200000000001,2.60235 0.93648,5.1964500000000005 1.32239,7.80667 c0.3855200000000001,2.60981 0.6507900000000002,5.23732 0.995,7.85343 q0.36607000000000006,2.78292 0.80445,5.55564 c0.45389,2.84757 0.98285,5.68414 1.40374,8.53644 c0.52542,3.5620000000000003 0.9883599999999999,7.13387 1.44973,10.704930000000001 c0.35761000000000004,2.765 0.7026600000000001,5.53246 0.99582,8.305 c0.32893000000000006,3.10616 0.5517500000000001,6.22372 0.8968000000000002,9.32792 c0.44600000000000006,4.01592 1.34519,8.02162 1.36444,12.03519 c0.027120000000000005,5.57057 1.12827,11.08338 0.5156000000000001,16.69325 c-0.48141000000000006,4.4053700000000005 -2.16142,7.90334 -5.90068,10.32413 c-0.5156000000000001,0.3340000000000001 -1.28,0.3698000000000001 -1.67294,0.78558 a8.98628,8.98628 0 0 0 -1.1243400000000001,1.99834 a5.64285,5.64285 0 0 0 1.74093,0.6240600000000001 c2.6534400000000002,0.014150000000000001 5.30767,-0.12576 7.9619,-0.13283 c8.25742,-0.021220000000000003 16.51483,-0.007860000000000002 24.77225,-0.007860000000000002 c0,0.06484000000000001 0,0.12929000000000002 0.00040000000000000013,0.19374000000000005 c11.00675,0 22.01349,0.010610000000000001 33.01985,-0.035 c0.49241000000000007,-0.0020000000000000005 0.98286,-0.5156000000000001 1.47409,-0.7906900000000001 c-0.3163500000000001,-0.47119 -0.52857,-1.111 -0.9679200000000001,-1.38253 c-1.4285100000000002,-0.8826400000000002 -3.11127,-1.42339 -4.38455,-2.47345 c-2.7061,-2.23216 -4.65177,-4.97559 -4.58889,-8.74433 c0.11082000000000002,-6.64107 -0.09825000000000003,-13.277 0.7564900000000001,-19.91063 c0.6138500000000001,-4.76417 0.53761,-9.61361 0.91055,-14.41393 c0.272,-3.49876 0.75336,-6.98258 1.18014,-10.468 c0.36862000000000006,-3.00831 0.83352,-6.00522 1.18014,-9.01588 c0.34071000000000007,-2.95761 0.55332,-5.92977 0.8846100000000001,-8.889 c0.22871000000000005,-2.04864 0.55136,-4.087 0.85435,-6.127 c0.23225,-1.56173 0.49477000000000004,-3.11913 0.7510000000000001,-4.67732 c0.30300000000000005,-1.84271 0.5706200000000001,-3.69328 0.93217,-5.525 c0.41695000000000004,-2.11151 0.9581000000000001,-4.19827 1.3758400000000002,-6.30978 c0.6300000000000001,-3.18712 1.07364,-6.41628 1.82817,-9.572 c0.8520000000000001,-3.5663400000000003 1.86315,-7.10243 2.98473,-10.59411 c1.153,-3.59111 2.4766,-7.13034 3.83868,-10.64874 c0.25034,-0.6472500000000001 1.0591,-1.5275400000000001 1.57706,-1.5059200000000001 a2.50756,2.50756 0 0 1 1.7401400000000002,1.44068 c1.7173500000000002,4.6109100000000005 3.41622,9.23557 4.88049,13.93057 c0.8476700000000001,2.71789 1.24616,5.57568 1.8521400000000001,8.36942 c0.7317400000000002,3.37418 1.48942,6.74324 2.19522,10.12292 c0.3434700000000001,1.6434700000000002 0.6264200000000001,3.3010800000000002 0.8810800000000001,4.96066 c0.3493600000000001,2.27657 0.6342800000000001,4.563 0.96713,6.84228 c0.4778800000000001,3.27082 0.97422,6.53929 1.46231,9.80893 c0.33993000000000007,2.28049 0.6751400000000002,4.56178 1.019,6.84149 c0.45783,3.03739 0.9746,6.06692 1.36955,9.11216 c0.44526000000000004,3.43077 0.7553200000000001,6.87922 1.17621,10.31352 c0.3855200000000001,3.149 0.9188000000000001,6.2811 1.243,9.4356 c0.36391000000000007,3.53726 0.5647300000000001,7.09143 0.8398200000000001,10.63812 c0.014930000000000002,0.19139000000000003 0.06366000000000002,0.38000000000000006 0.09156000000000003,0.5710000000000001 c0.8320000000000001,5.70655 1.717,11.43393 0.6342800000000001,17.18252 a8.7855,8.7855 0 0 1 -3.54984,5.75175 a47.62771,47.62771 0 0 0 -4.55707,3.3065800000000003 c-0.5662900000000001,0.5053799999999999 -0.6197300000000001,1.5853000000000002 -0.90661,2.4035 a6.94744,6.94744 0 0 0 1.89458,0.59852 c2.02584,0.03694 4.05444,-0.10689000000000001 6.08146,-0.10218 q27.95839,0.06543000000000002 55.916,0.11986000000000002 a2.0924,2.0924 0 0 0 1.62461,-0.9188000000000001 c0.36940000000000006,-0.8740000000000001 -0.005900000000000002,-1.6096700000000002 -1.09211,-1.95432 a7.672610000000001,7.672610000000001 0 0 1 -3.909,-3.2551 c-3.36435,-4.80543 -3.25274,-10.34142 -3.48775,-15.79253 c-0.09078000000000003,-2.10326 0.22911000000000004,-4.223 0.3364000000000001,-6.33611 c0.09274000000000003,-1.8290000000000002 0.06600000000000002,-3.66735 0.23736000000000002,-5.48766 c0.41735000000000005,-4.44506 0.907,-8.88344 1.3903800000000002,-13.32222 c0.3430800000000001,-3.1541 0.6798700000000002,-6.30978 1.0984,-9.45445 c0.37412000000000006,-2.8106400000000002 0.8743900000000001,-5.604 1.28467,-8.41029 c0.30574,-2.08833 0.55961,-4.18452 0.83038,-6.27795 c0.34543000000000007,-2.6687700000000003 0.6319200000000001,-5.34618 1.04141,-8.00473 c0.37923,-2.46481 0.92391,-4.90368 1.3294700000000002,-7.36456 c0.54586,-3.3109 1.01941,-6.6336 1.5409000000000002,-9.94844 c0.26055,-1.6580000000000001 0.59223,-3.3054 0.8327400000000001,-4.96577 c0.3363900000000001,-2.3249 0.5788700000000001,-4.66317 0.9333400000000001,-6.9845299999999995 c0.2967,-1.94332 0.6845800000000001,-3.87327 1.0532,-5.80519 c0.42168000000000005,-2.20976 0.9148700000000001,-4.40695 1.28821,-6.625 c0.37373,-2.22115 0.56118,-4.47493 0.9679200000000001,-6.689 c0.6755500000000001,-3.6756 1.46977,-7.32958 2.196,-10.99614 q0.47452000000000005,-2.39387 0.8743900000000001,-4.80307 c0.36076,-2.17321 0.6637600000000001,-4.35586 1.03513,-6.5275 c0.27509,-1.6084900000000002 0.6103000000000001,-3.20676 0.9341200000000001,-4.807 c0.40832000000000007,-2.016 0.8578900000000002,-4.02457 1.24184,-6.0453 c0.38473,-2.02388 0.6621800000000001,-4.069 1.07442,-6.087 c0.6712200000000001,-3.28772 1.42418,-6.55854 2.12095,-9.84115 c0.30810000000000004,-1.4513 0.5666800000000001,-2.91321 0.84138,-4.37158 c0.35251000000000005,-1.8730000000000002 0.65236,-3.75773 1.06067,-5.61852 c0.37845000000000006,-1.726 0.9588900000000001,-3.40994 1.29332,-5.14261 c0.8928600000000001,-4.62584 1.858,-9.22338 4.1236,-13.42008 C216.0199984362793,11.393033374023446 218.6750084362793,7.155863374023426 223.0296784362793,4.317323374023431 z" id="svg_2" fill="#ffffff" fill-opacity="1"/>
    <path d="M574.8998184362792,195.82131337402342 a2.75448,2.75448 0 0 0 -1.7688300000000001,0.50381 c-0.7686800000000001,0.55922 -1.35737,1.35776 -2.08558,1.9809999999999999 c-2.61728,2.242 -5.98438,2.6337900000000003 -9.13142,3.2107 a77.40191,77.40191 0 0 1 -11.35021,0.8932500000000001 c-3.22563,0.10729000000000002 -6.46187,-0.14894000000000004 -9.693,-0.14658000000000002 c-6.1797,0.004710000000000001 -12.3598,0.06759000000000003 -18.53911,0.134 c-1.25873,0.013750000000000004 -1.7558600000000002,-0.5859500000000001 -1.71027,-1.77276 c0.039290000000000005,-1.01312 0.10453000000000001,-2.02585 0.10492000000000001,-3.039 q0.004730000000000001,-17.09312 -0.013000000000000003,-34.18585 c-0.02082,-9.65448 -0.08174000000000002,-19.30857 -0.132,-28.96266 c-0.006290000000000001,-1.21708 0.5438900000000001,-1.7106700000000001 1.77826,-1.69809 c7.0486,0.07191 14.098,0.09235000000000002 21.14657,0.14579000000000003 a16.935,16.935 0 0 1 4.31813,0.18864000000000003 a69.82019,69.82019 0 0 1 8.3875,2.91556 c2.59842,1.09407 5.06362,2.50371 7.59013,3.76952 c0.44329,0.22243000000000004 0.8995400000000001,0.41892000000000007 1.3499100000000002,0.62721 a6.1182,6.1182 0 0 0 0.36508000000000007,-1.45366 q0.021230000000000002,-15.28047 -0.008250000000000002,-30.56094 c-0.0007900000000000002,-0.7447100000000001 0.24954000000000004,-1.6552600000000002 -0.8256700000000001,-1.89066 c-0.95456,-0.20946000000000004 -1.53539,0.23500000000000001 -2.12173,1.06775 a17.55606,17.55606 0 0 1 -6.27166,6.02683 a25.84082,25.84082 0 0 1 -12.12047,3.1207 c-6.95192,-0.06720000000000002 -13.905,-0.023580000000000007 -20.85733,0.013000000000000003 c-3.5129,0.018470000000000004 -3.41151,0.05777000000000001 -3.40326,-3.47753 c0.03694,-15.25847 0.09432000000000003,-30.51811 -0.06956000000000002,-45.77461 c-0.030650000000000007,-2.84875 1.2776,-4.38218 3.33252,-5.72423 c3.58521,-2.34141 7.693490000000001,-2.90534 11.81119,-3.20126 a92.19938,92.19938 0 0 1 10.13118,-0.13755 a59.28443,59.28443 0 0 1 7.73592,0.93649 c1.74015,0.29867000000000005 3.42016,0.93491 5.14223,1.35776 c3.5632,0.87558 7.14212,1.6867 10.70139,2.5776000000000003 c0.8720000000000001,0.21811000000000003 1.66823,0.79147 2.543,0.93727 c1.3782,0.22950000000000004 2.00973,-0.4032 2.00658,-1.7401400000000002 c-0.012180000000000002,-5.74192 -0.04794,-11.48383 -0.026330000000000006,-17.22536 c0.004320000000000001,-1.19192 -0.57651,-1.5059200000000001 -1.6124200000000002,-1.48588 c-2.6066700000000003,0.05030000000000001 -5.21414,0.10768000000000001 -7.8212,0.10886000000000001 q-31.36264,0.012370000000000003 -62.72527,0.004710000000000001 v-0.18116000000000002 q-35.34456,0 -70.68912,0.0003900000000000001 c-0.80208,0 -1.5967000000000002,0.024000000000000004 -1.7535,1.0716700000000001 c-0.16388000000000003,1.09329 0.406,1.566 1.41435,1.78062 c2.64991,0.56354 4.02968,2.41294 4.84866,4.84788 c1.49413,4.4427 0.5046,8.85711 -0.1285,13.26838 a34.02,34.02 0 0 1 -0.9420000000000001,4.05326 c-0.6610000000000001,2.43533 -1.41436,4.8459 -2.049,7.28753 c-0.6492100000000001,2.49546 -1.15106,5.029 -1.81127,7.52135 c-0.6692600000000001,2.5269 -1.47213,5.01843 -2.18147,7.5351099999999995 c-0.90544,3.21109 -1.6183100000000001,6.4862400000000004 -2.6998100000000003,9.63563 c-1.3841,4.02928 -2.8739,8.04324 -4.65217,11.91061 c-1.6434600000000001,3.57382 -3.46849,7.14448 -7.28713,9.05243 c-1.31729,0.6582500000000001 -1.928,0.45233 -2.03764,-1.00722 c-0.12929000000000002,-1.72757 -0.14776000000000003,-3.46732 -0.13047,-5.20117 q0.18216000000000002,-18.52083 0.40281000000000006,-37.04128 c0.07074000000000001,-6.074 0.17174000000000003,-12.148 0.24562,-18.222 a19.97138,19.97138 0 0 1 0.6983400000000002,-6.25948 a9.56606,9.56606 0 0 1 7.68837,-6.70434 a1.79466,1.79466 0 0 0 1.69338,-2.104 c-0.026720000000000004,-1.24223 -0.81623,-1.41279 -1.8780800000000002,-1.40964 q-23.17655,0.06900000000000002 -46.35347,0.10217000000000001 a8.28161,8.28161 0 0 0 -2.8354,0.43307000000000007 a1.718,1.718 0 0 0 -0.8650000000000001,1.4348 a2.88938,2.88938 0 0 0 1.24616,1.5813700000000002 c1.8721900000000002,1.18053 3.85087,2.19168 5.73013,3.362 a5.85233,5.85233 0 0 1 3.06214,5.209 c0.038520000000000006,6.60256 0.21300000000000002,13.20472 0.26722999999999997,19.80728 c0.08450000000000002,10.23217 0.10729000000000002,20.46434 0.16820000000000004,30.69652 q0.18628000000000003,31.20288 0.37334000000000006,62.40576 c0.03812000000000001,8.69089 -0.06249000000000001,17.38256 -0.07821000000000002,26.07423 c-0.0015700000000000004,0.7620000000000001 0.21733000000000002,1.52282 0.23500000000000001,2.28639 c0.07113000000000001,3.03581 0.6460700000000001,6.19345 0.004320000000000001,9.07679 a15.0956,15.0956 0 0 1 -5.13121,8.3761 a17.96273,17.96273 0 0 1 -2.923,1.5585900000000001 a2.09435,2.09435 0 0 0 -1.17817,2.41018 c0.22793000000000005,1.13887 1.15027,0.9569200000000001 1.9649200000000002,0.9486700000000001 c3.95934,-0.04009000000000001 7.9186700000000005,-0.11869000000000003 11.87761,-0.10925000000000001 q16.8756,0.039490000000000004 33.7512,0.15130000000000002 c1.2084300000000001,0.007850000000000003 2.01327,-0.3415100000000001 2.051,-1.6434700000000002 a1.6578400000000002,1.6578400000000002 0 0 0 -1.84821,-1.90127 a3.15174,3.15174 0 0 1 -1.21157,-0.406 c-4.61248,-2.25181 -6.296,-6.71967 -6.38131,-11.07788 c-0.38709000000000005,-19.79038 -0.26055,-39.591 -0.28059,-59.388 a4.640000000000001,4.640000000000001 0 0 1 0.6661100000000001,-1.58609 c0.5309200000000001,0.24837 1.26856,0.35408000000000006 1.55544,0.77025 a32.1008,32.1008 0 0 1 2.74383,4.5775 c1.37623,2.9556500000000003 2.6333900000000003,5.971 3.83318,9.0037 c0.94945,2.40115 1.7865099999999998,4.85023 2.58663,7.3064 c0.9329500000000001,2.86447 1.6992700000000003,5.78435 2.66916,8.63547 c1.1687400000000001,3.43784 2.4652,6.83284 3.72472,10.24 c1.81128,4.89778 3.67167,9.77788 5.43971,14.691 a16.12085,16.12085 0 0 1 1.06067,4.2918 c0.17488,2.6448 0.11672000000000003,5.3100000000000005 0.03419000000000001,7.96307 a3.847,3.847 0 0 1 -0.7533500000000001,2.231 c-0.9243,1.09171 -2.22548,1.8769 -3.08887,3.00477 a4.85457,4.85457 0 0 0 -0.72545,2.73321 c-0.004720000000000001,0.21890000000000004 1.25166,0.6515700000000001 1.93388,0.6645400000000001 c2.31547,0.04441000000000001 4.6337,-0.09589000000000003 6.95074,-0.09274000000000003 c13.23027,0.016500000000000004 26.46053,0.08410000000000002 39.69079,0.07781 c20.71507,-0.009830000000000004 41.42975,-0.12100000000000001 62.14443,-0.07742000000000002 c10.46089,0.022000000000000006 20.92139,0.29356000000000004 31.38189,0.44014000000000003 c1.6977000000000002,0.024000000000000004 1.92209,-0.24800000000000003 1.91266,-1.92248 c-0.028690000000000004,-5.21414 -0.06523000000000002,-10.42867 -0.05069000000000001,-15.64281 c0.004710000000000001,-1.6859100000000002 0.20238,-3.371 0.21575000000000003,-5.05733 C575.3835884362793,196.80731337402347 575.1210684362793,195.84528337402344 574.8998184362792,195.82131337402342 zM489.2815584362793,156.97858337402346 c-0.07231,16.59422 -0.16349000000000005,33.18962 -0.42521000000000003,49.78148 c-0.05817000000000001,3.6909300000000003 -2.22588,6.49685 -5.4295,8.35488 c-0.80523,0.46726 -1.9260000000000002,1.13062 -2.6282900000000002,0.8936500000000002 a17.61182,17.61182 0 0 1 -5.50927,-2.70256 c-4.72251,-3.85676 -7.77679,-9.04614 -10.46639,-14.40726 c-1.7397500000000001,-3.4681 -3.261,-7.06038 -4.652950000000001,-10.6841 c-1.32083,-3.43824 -2.34495,-6.99 -3.5011099999999997,-10.49155 c-1.00212,-3.03424 -2.04549,-6.05513 -2.99966,-9.1043 c-0.9282400000000001,-2.96705 -1.73818,-5.97142 -2.65227,-8.94318 c-0.92548,-3.00988 -1.93309,-5.99422 -2.87,-9.00017 c-0.93727,-3.00594 -1.792,-6.03783 -2.75523,-9.03513 c-0.9360900000000001,-2.91282 -2.05924,-5.76864 -2.90455,-8.70582 a7.1,7.1 0 0 1 -0.15916000000000002,-3.76756 c1.06066,-3.57735 2.40428,-7.071 3.6288300000000002,-10.6 c1.1935,-3.4406 2.35241,-6.89337 3.56988,-10.32532 c1.10272,-3.10969 2.25653,-6.20131 3.4009,-9.29608 q1.44363,-3.90294 2.91792,-7.79448 c1.01155,-2.68095 2.0427400000000002,-5.35443 3.04879,-8.03735 c1.16048,-3.094 2.28285,-6.2021 3.45945,-9.28979 c1.09014,-2.8609400000000003 2.19758,-5.71637 3.3561,-8.55019 c1.25205,-3.06176 2.44044,-6.16084 3.8964600000000003,-9.12553 c1.68355,-3.4272299999999998 3.65752,-6.67919 7.18849,-8.637 c1.61753,-0.8968000000000002 5.76432,-0.6190000000000001 7.363,0.7608200000000002 a14.303,14.303 0 0 1 4.73233,11.4186 c0.11672000000000003,0 0.233,-0.00040000000000000013 0.34976000000000007,-0.0007900000000000002 q0,30.68474 0.0023600000000000006,61.36868 C489.2473684362793,133.03199337402344 489.3334284362793,145.0054833740234 489.2815584362793,156.97858337402346 z" id="svg_3" fill="#ffffff" fill-opacity="1"/>
    <path d="M676.0304184362793,134.67271337402343 c-0.036550000000000006,-4.671 -0.18392000000000003,-9.34088 -0.25741,-14.01192 c-0.06524000000000002,-4.144 -0.08764000000000002,-8.28846 -0.14855000000000002,-12.4325 q-0.15739000000000003,-10.70316 -0.3419000000000001,-21.40594 c-0.07545,-4.37865 -0.20435,-8.75651 -0.257,-13.13516 a41.10654,41.10654 0 0 0 -1.99637,-12.30871 c-2.09265,-6.40253 -6.06259,-11.23822 -12.60816,-13.57216 c-2.60982,-0.93059 -5.22161,-1.8780800000000002 -7.88762,-2.61925 a26.39841,26.39841 0 0 0 -6.60413,-1.2791700000000001 c-11.00557,-0.12929000000000002 -22.01389,-0.05900000000000001 -33.021,-0.05900000000000001 c0,-0.04873000000000001 0,-0.09707000000000003 -0.00040000000000000013,-0.1458 q-17.01648,0 -34.033,-0.007860000000000002 c-0.8531700000000001,-0.0007800000000000002 -1.58963,0.07 -1.59631,1.16167 c-0.005890000000000001,1.01155 -0.12772,2.01366 1.28114,2.37324 a11.61014,11.61014 0 0 1 4.00452,1.49571 c4.33975,3.1989 6.208,7.84164 6.7798,13.01176 a71.50466,71.50466 0 0 1 0.15800000000000003,7.94814 c-0.04834000000000001,31.04 -0.015330000000000003,62.08077 -0.21143000000000003,93.11958 c-0.08174000000000002,12.908 0.9577100000000001,25.84511 -0.63821,38.71893 a18.95573,18.95573 0 0 1 -2.0506,6.83245 a34.28116,34.28116 0 0 1 -5.08642,6.20918 c-1.10507,1.18682 -2.5308200000000003,2.06986 -3.73808,3.171 a1.43892,1.43892 0 0 0 -0.35486000000000006,1.2690000000000001 a1.50023,1.50023 0 0 0 1.14359,0.6028400000000002 c1.00722,0.06170000000000001 2.02387,-0.05070000000000001 3.037,-0.051480000000000005 q30.48666,-0.020640000000000002 60.97373,-0.05306000000000001 a40.37788,40.37788 0 0 0 5.74348,-0.52542 c2.17793,-0.31950000000000006 4.33778,-0.77418 6.4941,-1.2249400000000001 c1.8717900000000003,-0.39100000000000007 3.753,-0.773 5.58354,-1.31532 c1.8336700000000001,-0.5438900000000001 3.606,-1.2945 5.413,-1.93192 a18.84932,18.84932 0 0 0 8.46688,-5.303 a5.27813,5.27813 0 0 0 1.32908,-2.6550000000000002 c0.3851200000000001,-4.1688 0.8099400000000001,-8.35567 0.80012,-12.53547 C676.3593384362792,174.23302337402345 676.1848584362793,154.45287337402345 676.0304184362793,134.67271337402343 zM640.4211784362793,199.50084337402342 a6.14864,6.14864 0 0 1 -3.68739,1.31139 c-2.20072,0.20632 -4.43524,0.05700000000000001 -6.65561,0.05700000000000001 l-0.0003900000000000001,0.07585 c-2.26792,0 -4.5382,-0.05541000000000001 -6.80377,0.022000000000000006 c-1.2379,0.04205000000000001 -1.70634,-0.3265700000000001 -1.70673,-1.63325 q-0.003000000000000001,-10.84641 -0.14737,-21.69282 c-0.06563000000000002,-5.43971 -0.24876000000000004,-10.87785 -0.30064,-16.31756 c-0.10414000000000001,-11.00164 -0.14344000000000004,-22.00407 -0.23225,-33.00571 c-0.04600000000000001,-5.68336 0.07742000000000002,-11.3789 -0.25544,-17.04655 c-0.9447400000000001,-16.10141 -0.24680000000000002,-32.2158 -0.6060000000000001,-48.31958 c-0.03615000000000001,-1.6246 1.08779,-2.556 3.03739,-3.039 a20.843,20.843 0 0 1 10.262,0.10611000000000001 a10.90307,10.90307 0 0 1 7.6978100000000005,6.20878 a20.51556,20.51556 0 0 1 1.65761,8.81311 c-0.06052000000000001,7.56733 0.12065000000000001,15.13624 0.20043000000000002,22.70475 q0.27351000000000003,25.89286 0.5478200000000001,51.78572 q0.09900000000000003,8.8858 0.28334000000000004,17.77161 c0.16388000000000003,7.85461 0.50145,15.70843 0.49359000000000003,23.56265 A12.75437,12.75437 0 0 1 640.4211784362793,199.50084337402342 z" id="svg_4" fill="#ffffff" fill-opacity="1"/>
    <path d="M358.8129884362793,58.98598337402342 c-2.9415,-4.71583 -7.17946,-8.17057 -11.75892,-11.14429 a19.744790000000002,19.744790000000002 0 0 0 -5.997,-2.3103700000000003 a56.00538,56.00538 0 0 0 -7.10557,-1.05123 c-3.72354,-0.42286000000000007 -7.44944,-0.9471 -11.18713,-1.08425 c-3.11166,-0.11400000000000002 -6.2418,0.26644 -9.36368,0.42875 c-2.45262,0.12772 -4.91664,0.15405000000000002 -7.35551,0.41342000000000007 c-2.8126,0.29867000000000005 -5.62638,0.6877200000000002 -8.39615,1.2532299999999998 a36.862,36.862 0 0 0 -7.58345,2.095 c-2.56305,1.1373 -4.818,2.95093 -7.26748,4.36529 c-5.5607500000000005,3.21069 -7.67423,8.27353 -7.68484,14.37974 q-0.05953000000000001,33.8243 -0.01572,67.64859 h-0.04166000000000001 c0,21.77692 0.03458000000000001,43.55384 -0.045190000000000015,65.33076 c-0.009430000000000003,2.657 0.2868800000000001,5.01765 1.99086,7.16217 c2.41215,3.03621 4.86792,6.06181 8.38475,7.81649 a75.05509,75.05509 0 0 0 8.41108,3.31719 a24.52371,24.52371 0 0 0 4.06387,0.9168400000000001 c2.2691,0.39100000000000007 4.54409,0.77222 6.83048,1.03866 c3.7683400000000002,0.4393600000000001 7.54337,1.04141 11.32389,1.10665 c5.34147,0.09200000000000003 10.68922,-0.28806000000000004 16.03579,-0.37963 a31.51989,31.51989 0 0 0 12.87147,-2.5151 a34.83294,34.83294 0 0 0 5.97417,-3.49994 a33.99706,33.99706 0 0 0 6.3145,-5.46682 a16.62524,16.62524 0 0 0 3.55848,-6.801 a50.68216,50.68216 0 0 0 0.6099200000000001,-10.5053 c-0.05306000000000001,-9.838000000000001 -0.27431000000000005,-19.67483 -0.37845000000000006,-29.51284 c-0.07584,-7.14213 -0.08410000000000002,-14.28543 -0.09589000000000003,-21.428 c-0.003930000000000001,-2.41372 0.09235000000000002,-4.827 0.10532000000000001,-7.24077 c0.005110000000000001,-0.9710599999999999 -0.30967000000000006,-1.8666800000000001 -1.5137800000000001,-1.51221 c-1.7464300000000001,0.51481 -3.42959,1.24145 -5.15951,1.818 c-2.90731,0.96831 -5.8287700000000005,1.8938000000000001 -8.746690000000001,2.8291 c-1.9566700000000001,0.62721 -3.922,1.2273 -5.87592,1.86236 c-2.86566,0.93138 -5.68769,2.03135 -8.60246,2.76309 c-1.4693800000000001,0.36900000000000005 -1.8769,0.98325 -1.83092,2.363 c0.12457000000000001,3.7110000000000003 0.21457,7.42468 0.22439000000000003,11.13761 c0.035370000000000006,13.71325 -0.004320000000000001,27.42688 0.07860000000000002,41.13973 a7.01537,7.01537 0 0 1 -2.857,5.6947600000000005 c-2.32294,1.91345 -5.22868,2.39014 -8.12695,2.5438 a12.36939,12.36939 0 0 1 -3.37732,-0.6818300000000002 a12.15391,12.15391 0 0 1 -7.64082,-5.01215 a3.34159,3.34159 0 0 1 -0.52032,-1.7550700000000001 c-0.007460000000000002,-12.79562 0.04127000000000001,-25.59124 0.039700000000000006,-38.38686 q-0.0053100000000000005,-44.61648 -0.07664000000000001,-89.23256 a6.60143,6.60143 0 0 1 2.73125,-5.42595 a11.53466,11.53466 0 0 1 7.63729,-2.5607 a43.03946,43.03946 0 0 1 4.7009,0.6252400000000001 c2.50332,0.30889000000000005 5.48962,2.86762 5.83545,5.3477500000000004 a68.77794,68.77794 0 0 1 0.7388100000000001,8.60482 c0.09707000000000003,7.74693 0.04716000000000001,15.49622 0.022400000000000007,23.24472 c-0.018470000000000004,5.88968 -0.08842000000000003,11.77976 -0.13361,17.66944 c-0.012190000000000001,1.58805 0.47394000000000003,1.8093 1.94095,1.25912 c3.50033,-1.3130000000000002 7.038,-2.52847 10.57525,-3.742 c2.6707400000000003,-0.916 5.3678,-1.7558600000000002 8.046,-2.65187 c3.62608,-1.21236 7.25687,-2.41254 10.8523,-3.7101800000000003 a1.96834,1.96834 0 0 0 1.11254,-1.35226 q0.28708000000000006,-4.24661 0.30771000000000004,-8.51011 c0.03183000000000001,-7.38735 -0.0003900000000000001,-14.77509 -0.003140000000000001,-22.16283 c0,-0.5301400000000001 0.04991000000000001,-1.06067 0.04441000000000001,-1.59042 a58.26656,58.26656 0 0 0 -0.11869000000000003,-6.02526 C360.96104843627927,64.81868337402346 360.4953684362793,61.68265337402346 358.8129884362793,58.98598337402342 z" id="svg_5" fill="#ffffff" fill-opacity="1"/>
    <path d="M262.1416084362793,216.6817933740234 a11.50878,11.50878 0 0 1 -6.95978,-4.5951900000000006 a9.99465,9.99465 0 0 1 -1.97279,-4.52366 c-0.27077,-5.1489 -0.16191000000000005,-10.31823 -0.17449000000000003,-15.4801 q-0.13322,-55.51771 -0.25778999999999996,-111.035 c-0.003540000000000001,-1.48745 -0.41971,-1.8796500000000003 -1.8930000000000002,-1.87494 q-15.71256,0.05012000000000001 -31.42433,0.08607000000000002 c-1.78533,0.003140000000000001 -3.57185,-0.05974000000000001 -5.3564,-0.12811999999999998 c-1.07363,-0.041260000000000005 -1.649,0.3914200000000001 -1.6525,1.49964 a4.348,4.348 0 0 0 0.009430000000000003,1.57351 c0.20278000000000002,0.48023 0.7242700000000001,1.14831 1.13455,1.16835 c4.02535,0.19728000000000004 6.40724,2.6762300000000003 8.03931,5.93409 a47.79744,47.79744 0 0 1 2.725,7.2388 a34.12751,34.12751 0 0 1 1.27524,5.88575 c0.28491000000000005,2.28482 0.31600000000000006,4.60383 0.40595000000000003,6.91026 c0.16505000000000003,4.23089 0.33875000000000005,8.46216 0.42600000000000005,12.695 c0.15876000000000004,7.71234 0.25976,15.42587 0.37923,23.139 c0.10571000000000001,6.83835 0.37216000000000005,13.67906 0.26959,20.51465 c-0.22047000000000003,14.702 0.6311300000000001,29.41814 -0.5694400000000001,44.11031 a4.94968,4.94968 0 0 1 -1.83407,3.7467300000000003 c-1.32279,1.03512 -2.77565,1.90637 -4.18333,2.83107 c-0.7647500000000002,0.5018400000000001 -1.43754,1.02294 -1.08582,2.09658 c0.32775000000000004,1.00133 1.12,1.02923 1.98733,1.02766 q10.06418,-0.021810000000000003 20.12795,-0.007860000000000002 v0.022790000000000005 q10.06417,0 20.12795,0.0003900000000000001 c0.90466,0.00040000000000000013 1.8045900000000001,-0.03183000000000001 1.9834,-1.19821 C263.8487384362793,217.1466933740234 263.0863484362793,216.93448337402344 262.1416084362793,216.6817933740234 z" id="svg_6" fill="#ffffff" fill-opacity="1"/>
    <path d="M278.2669984362793,41.80189337402345 c2.7442200000000003,0.3996700000000001 4.41716,-0.43307000000000007 5.74388,-2.72929 a3.75951,3.75951 0 0 1 1.3314400000000002,-1.2662 c3.83043,-2.2443400000000002 7.66519,-4.48318 11.54789,-6.6351700000000005 a4.09694,4.09694 0 0 0 2.12526,-2.92539 a3.86225,3.86225 0 0 0 -0.14147,-1.21865 a3.81869,3.81869 0 0 0 -1.2886,0.24051000000000003 q-6.25143,3.7838700000000003 -12.45647,7.64515 c-0.9883599999999999,0.61541 -1.8800000000000001,1.09328 -3.06647,0.3859100000000001 c-0.3324700000000001,-0.19846000000000005 -0.98168,0.11475000000000002 -1.48038,0.21811000000000003 a34.69292,34.69292 0 0 1 -4.087,0.7957900000000001 c-0.38749000000000006,0.03183000000000001 -0.84335,-0.7640000000000001 -1.2677800000000001,-1.1801300000000001 a10.40635,10.40635 0 0 1 1.20922,-1.14241 c0.18981000000000003,-0.13283 0.56236,0 0.8520000000000001,0.003140000000000001 c1.43558,0.017680000000000005 3.00281,0.31989000000000006 3.47164,-1.6898400000000002 c0.03930000000000001,-0.16741000000000006 0.35290000000000005,-0.31950000000000006 0.56826,-0.3894500000000001 c1.02019,-0.3320700000000001 0.8610000000000001,-1.00329 0.527,-1.7311 c-0.24129000000000003,-0.52542 -0.47865,-1.054 -0.74746,-1.56566 c-0.6606100000000001,-1.25834 -0.14972000000000002,-1.99479 1.04495,-2.47188 c1.34362,-0.53642 2.7190700000000003,-1.01547 4.00492,-1.6682200000000003 a6.86559,6.86559 0 0 0 3.99588,-4.99328 a1.46,1.46 0 0 0 -0.25387000000000004,-1.17228 c-0.2016,-0.17527 -0.79226,-0.03144 -1.14712,0.11947000000000002 a42.56662,42.56662 0 0 0 -4.8549500000000005,2.20936 c-1.7735400000000001,1.03552 -3.04682,0.3458300000000001 -4.23049,-0.8637800000000001 a45.48519,45.48519 0 0 1 -3.9915599999999998,-4.37825 c-2.22941,-2.9698 -5.44364,-3.61508 -8.784,-3.96995 c-0.47984000000000004,-0.05109000000000001 -1.03434,0.5997000000000001 -1.55465,0.92588 a4.61513,4.61513 0 0 0 1.4304700000000001,0.7321300000000001 c1.6509300000000002,0.18000000000000002 2.8719400000000004,0.8292 3.28929,2.5390800000000002 c0.32971000000000006,1.34873 0.61423,2.70846 1.01076,4.473 c-0.2923800000000001,0.6248400000000002 -0.461,1.8737500000000002 -1.10822,2.21487 c-2.86566,1.5110000000000001 -5.8806400000000005,2.68527 -9.26189,2.20032 a4.24638,4.24638 0 0 0 -1.3043200000000001,0.23500000000000001 c0.28137000000000006,0.38395000000000007 0.48100000000000004,0.94945 0.8586700000000002,1.11883 c1.26777,0.5694400000000001 2.61729,0.95535 3.8944900000000002,1.5070999999999999 c0.37334000000000006,0.16113000000000002 0.86811,0.6641500000000001 0.8410000000000001,0.9695 c-0.03144,0.35879 -0.529,0.7352700000000001 -0.90426,0.9844299999999999 a2.315,2.315 0 0 1 -0.9804999999999999,0.19020000000000004 c-2.72772,0.30417000000000005 -5.45071,0.7616100000000001 -8.1859,0.8563200000000001 c-2.84836,0.09864000000000003 -5.79693,0.61345 -8.48063,-1.01548 a1.36033,1.36033 0 0 0 -1.29253,0.11475000000000002 a1.33277,1.33277 0 0 0 -0.016900000000000005,1.27013 c0.9761799999999999,1.49178 2.04117,2.92657 3.10223,4.361 c0.70148,0.9478800000000001 0.52817,1.58373 -0.5914400000000001,1.959 c-0.3658700000000001,0.12262000000000002 -0.72428,0.27038000000000006 -1.0952600000000001,0.37334000000000006 c-3.43273,0.95456 -6.83795,2.03095 -10.3088,2.81732 c-4.21674,0.9557400000000001 -8.47238,1.928 -12.85064,1.15734 c-1.46427,-0.25780000000000003 -2.88648,-0.7694700000000001 -4.35428,-0.98639 c-0.5494,-0.08100000000000002 -1.17425,0.3462200000000001 -1.76451,0.54153 c0.26448000000000005,0.52228 0.39220000000000005,1.27642 0.8166200000000001,1.52675 a5.68877,5.68877 0 0 1 2.99927,5.17877 c0.08882000000000002,2.38306 -0.12182000000000001,3.15017 -2.31115,4.21045 c-1.64818,0.79815 -3.27043,1.6611500000000001 -4.8408,2.60157 a2.10289,2.10289 0 0 0 -1.01115,1.39274 a3.07712,3.07712 0 0 0 2.77684,2.541 c2.7006,0.03459000000000001 5.466,0.33679000000000003 8.08883,-0.12693000000000002 c3.62254,-0.6401700000000001 7.13466,-1.8977300000000001 10.70061,-2.866 c1.7597900000000002,-0.47826 3.5258700000000003,-0.94631 5.3116,-1.3090000000000002 c0.3316800000000001,-0.06760000000000002 0.7698600000000001,0.38900000000000007 1.15852,0.6036200000000002 c-0.21850000000000003,0.3470000000000001 -0.35600000000000004,0.8610000000000001 -0.6692600000000001,1.0143 c-1.9417400000000002,0.94906 -3.87916,1.9362400000000002 -5.90147,2.68488 c-3.02284,1.11883 -6.12389,2.02506 -9.168,3.09005 c-0.48377000000000003,0.16937000000000002 -1.12748,0.6602100000000001 -1.177,1.06617 c-0.046370000000000015,0.37844000000000005 0.51482,1.02648 0.9585,1.23083 a1.99888,1.99888 0 0 1 1.3279,2.3991800000000003 c-0.10415,0.6916500000000002 -0.10454000000000001,1.63246 0.9337300000000001,1.61753 c1.14359,-0.016510000000000004 1.32633,0.6248500000000001 1.5016,1.5110000000000001 c0.2747,1.3903800000000002 1.4127800000000001,1.7267800000000002 2.42629,0.7458900000000002 a13.995,13.995 0 0 0 1.11019,-1.3353700000000002 c3.53216,-4.39044 6.83363,-9.008 12.03244,-11.70155 c0.8390000000000001,-0.43464 1.44855,-1.32122 2.29386,-1.73346 a2.7012400000000003,2.7012400000000003 0 0 1 2.00659,-0.006290000000000001 c0.25426,0.10533000000000001 0.35486000000000006,1.1687400000000001 0.16544000000000006,1.6572300000000002 c-0.9400000000000001,2.42158 -2.99455,3.5074 -5.35639,4.11888 c-1.07168,0.27784000000000003 -2.20937,0.3458300000000001 -3.23939,0.72231 c-0.5167700000000001,0.18863000000000002 -1.256,0.89326 -1.21707,1.2996 c0.28530000000000005,2.96548 0.6865400000000002,5.92466 1.20764,8.85791 c0.07585,0.42756000000000005 0.9636000000000001,0.91644 1.51418,0.9679200000000001 c0.279,0.026330000000000006 0.6951900000000002,-0.83431 0.94906,-1.34362 a3.19714,3.19714 0 0 0 0.09942000000000004,-1.00054 c0.3914200000000001,-3.36868 2.13116,-5.2051 5.46722,-5.77139 a17.46682,17.46682 0 0 0 1.85607,-0.30300000000000005 a2.52571,2.52571 0 0 1 2.5992100000000002,0.82723 c1.29882,1.22062 2.6660000000000004,2.36813 3.99274,3.55927 c0.93138,0.83628 1.5578,0.50263 2.00148,-0.5034099999999999 c1.05045,-2.37953 1.9889000000000001,-4.81368 3.15332,-7.13505 c1.51574,-3.02167 3.19654,-5.97692 5.95334,-8.08726 a3.52747,3.52747 0 0 0 0.98168,-5.19606 c-0.6904800000000001,-1.11922 -0.52975,-1.47841 0.79383,-1.7197 c0.8056200000000001,-0.14659000000000003 1.614,-0.28178000000000003 2.42551,-0.3933800000000001 a3.47389,3.47389 0 0 0 2.7619000000000002,-2.25849 C275.7569984362793,41.42619337402343 275.7896184362793,41.44113337402345 278.2669984362793,41.80189337402345 z" id="svg_7" fill="#ffffff" fill-opacity="1"/>
  </g></g></svg>